HIERARCHY
ROOT hip
{
	OFFSET 0.000000 0.000000 0.000000 
	CHANNELS 6 Xposition Yposition Zposition Xrotation Zrotation Yrotation
	JOINT abdomen
	{
		OFFSET 0.000000 3.402643 0.000000 
		CHANNELS 3 Xrotation Zrotation Yrotation
		JOINT chest
		{
			OFFSET 0.000000 8.438565 -0.680529 
			CHANNELS 3 Xrotation Zrotation Yrotation
			JOINT neck
			{
				OFFSET 0.000000 10.207942 -0.272212 
				CHANNELS 3 Xrotation Zrotation Yrotation
				JOINT head
				{
					OFFSET 0.000000 3.130431 0.000000 
					CHANNELS 3 Xrotation Zrotation Yrotation
					End Site
					{
						OFFSET 0.000000 3.130435 0.000000 
					}
				}
			}
			JOINT lCollar
			{
				OFFSET 3.470700 6.669187 -0.816635 
				CHANNELS 3 Yrotation Zrotation Xrotation
				JOINT lShldr
				{
					OFFSET 3.198488 0.000000 0.000000 
					CHANNELS 3 Zrotation Yrotation Xrotation
					JOINT lForeArm
					{
						OFFSET 10.139888 0.000000 0.000000 
						CHANNELS 3 Yrotation Zrotation Xrotation
						JOINT lHand
						{
							OFFSET 8.370511 0.000000 0.000000 
							CHANNELS 3 Zrotation Yrotation Xrotation
							End Site
							{
								OFFSET 4.083176 0.000000 0.000000 
							}
						}
					}
				}
			}
			JOINT rCollar
			{
				OFFSET -3.470700 6.669187 -0.816635 
				CHANNELS 3 Yrotation Zrotation Xrotation
				JOINT rShldr
				{
					OFFSET -3.198488 0.000000 0.000000 
					CHANNELS 3 Zrotation Yrotation Xrotation
					JOINT rForeArm
					{
						OFFSET -10.139888 0.000000 0.000000 
						CHANNELS 3 Yrotation Zrotation Xrotation
						JOINT rHand
						{
							OFFSET -8.370511 0.000000 0.000000 
							CHANNELS 3 Zrotation Yrotation Xrotation
							End Site
							{
								OFFSET -4.083176 0.000000 0.000000 
							}
						}
					}
				}
			}
		}
	}
	JOINT lThigh
	{
		OFFSET 5.308129 -1.633274 1.361059 
		CHANNELS 3 Xrotation Zrotation Yrotation
		JOINT lShin
		{
			OFFSET -2.041588 -20.007561 0.000000 
			CHANNELS 3 Xrotation Zrotation Yrotation
			JOINT lFoot
			{
				OFFSET 0.000000 -19.190928 -1.224953 
				CHANNELS 3 Xrotation Yrotation Zrotation
				End Site
				{
					OFFSET 0.000000 -2.449906 4.627600 
				}
			}
		}
	}
	JOINT rThigh
	{
		OFFSET -5.308129 -1.633274 1.361059 
		CHANNELS 3 Xrotation Zrotation Yrotation
		JOINT rShin
		{
			OFFSET 2.041588 -20.007561 0.000000 
			CHANNELS 3 Xrotation Zrotation Yrotation
			JOINT rFoot
			{
				OFFSET 0.000000 -19.190928 -1.224953 
				CHANNELS 3 Xrotation Yrotation Zrotation
				End Site
				{
					OFFSET 0.000000 -2.449906 4.627600 
				}
			}
		}
	}
}
MOTION
Frames: 18
Frame Time: 0.016667
0.988128 53.725510 -1.015927 -11.277967 -1.301572 5.938847 29.614983 1.175044 0.022864 -1.550049 2.546677 -3.537170 -8.604205 -1.117713 0.119723 11.148433 1.169001 -4.014429 -5.453187 -11.802974 -0.615451 -55.086960 4.098588 -6.014506 -25.554192 -5.000000 35.727940 -23.373440 -9.652785 21.328636 0.696043 11.685949 -0.611389 59.602177 4.593477 4.435403 20.687904 5.000000 32.487652 23.056808 -16.291086 -0.905532 19.820620 19.793278 11.105605 2.671998 -7.116940 -0.665413 -4.836052 6.637748 -8.705605 21.506693 -5.829765 -12.095426 1.342490 1.885498 0.029462 -5.475458 -10.099064 8.793180 
0.991195 53.725510 -1.005979 -11.276956 -1.291859 5.938848 29.585255 1.162990 0.027042 -1.530549 2.536901 -3.527395 -8.574927 -1.127369 0.121184 11.159958 1.149544 -3.994903 -5.463060 -11.812726 -0.615954 -55.069363 4.125373 -6.032197 -25.520582 -5.000000 35.795837 -23.292799 -9.525710 21.442871 0.676406 11.676196 -0.610884 59.611561 4.587811 4.427752 20.767584 5.000000 32.460045 23.033836 -16.295214 -0.888688 19.840408 19.774189 11.122993 2.658730 -7.111446 -0.654743 -4.834570 6.619178 -8.702768 21.530371 -5.849364 -12.070061 1.355668 1.900097 0.029977 -5.510271 -10.122527 8.790698 
0.995019 53.724754 -0.996077 -11.285711 -1.282146 5.938848 29.575474 1.171383 0.030154 -1.530576 2.527127 -3.546919 -8.545630 -1.127369 0.121184 11.198538 1.159300 -3.985139 -5.472826 -11.812725 -0.615954 -55.071140 4.142108 -6.056177 -25.485573 -5.000000 35.850811 -23.248629 -9.434185 21.548481 0.656662 11.656693 -0.609874 59.620945 4.582146 4.420100 20.827570 5.000000 32.445969 23.005882 -16.324858 -0.862423 19.869890 19.773933 11.126252 2.640111 -7.139220 -0.643157 -4.811249 6.559253 -8.708463 21.534374 -5.867954 -12.055299 1.363495 1.906507 0.030429 -5.549628 -10.138864 8.781255 
0.999349 53.723492 -0.986201 -11.295478 -1.282146 5.938849 29.585327 1.182457 0.024680 -1.530171 2.517369 -3.556685 -8.526100 -1.127369 0.121184 11.255297 1.188540 -3.975373 -5.472610 -11.793221 -0.614948 -55.072323 4.153265 -6.072165 -25.469858 -5.000000 35.870541 -23.219311 -9.376570 21.640413 0.637025 11.646939 -0.609369 59.629429 4.584908 4.407584 20.884966 5.000000 32.440620 22.982800 -16.361963 -0.821630 19.886915 19.771969 11.108357 2.631353 -7.131916 -0.612880 -4.804432 6.530384 -8.710731 21.554522 -5.868055 -12.045025 1.363452 1.906449 0.040194 -5.565940 -10.206970 8.773020 
1.003902 53.722229 -0.976840 -11.305242 -1.282146 5.938848 29.585623 1.190310 0.028445 -1.520406 2.517369 -3.576217 -8.496803 -1.127369 0.121184 11.313418 1.198297 -3.965610 -5.472503 -11.783469 -0.614445 -55.073521 4.164421 -6.088150 -25.454142 -5.000000 35.893948 -23.206266 -9.299419 21.741287 0.617388 11.637188 -0.608864 59.637928 4.587673 4.394289 20.939760 5.000000 32.443996 22.952137 -16.395372 -0.786695 19.904224 19.741753 11.093192 2.629700 -7.111678 -0.612822 -4.799849 6.611889 -8.675554 21.581869 -5.878246 -12.036496 1.402352 1.914456 0.042280 -5.608172 -10.224955 8.729169 
1.009352 53.720963 -0.969555 -11.324774 -1.282146 5.938848 29.576187 1.172671 0.022743 -1.501685 2.536884 -3.585980 -8.477232 -1.108058 0.118262 11.334976 1.169070 -3.965612 -5.482162 -11.773717 -0.613942 -55.084450 4.174538 -6.104848 -25.469858 -5.000000 35.870541 -23.183146 -9.212885 21.815044 0.597645 11.617685 -0.607854 59.645290 4.575725 4.356469 20.972862 5.000000 32.498943 22.901621 -16.422884 -0.784633 19.956001 19.733662 11.116236 2.622644 -7.124756 -0.621593 -4.814430 6.601955 -8.658557 21.598425 -5.888524 -12.019602 1.403730 1.937624 0.042174 -5.648658 -10.247153 8.695856 
1.014802 53.719704 -0.962269 -11.333529 -1.272433 5.938850 29.567087 1.173962 0.025047 -1.472793 2.546641 -3.595745 -8.447895 -1.088746 0.115341 11.365624 1.149585 -3.965612 -5.482162 -11.773717 -0.613942 -55.094685 4.171067 -6.119144 -25.494120 -5.000000 35.847412 -23.163309 -9.135008 21.893623 0.577902 11.598181 -0.606843 59.652664 4.563787 4.318643 20.994682 5.000000 32.565025 22.851099 -16.450403 -0.779762 19.972836 19.731512 11.118408 2.610676 -7.118882 -0.649879 -4.823824 6.610409 -8.675901 21.625689 -5.897945 -12.001881 1.411247 1.944330 0.032860 -5.693079 -10.259004 8.688897 
1.017118 53.719448 -0.956836 -11.342284 -1.262720 5.938850 29.566387 1.162851 -0.000839 -1.472793 2.546641 -3.605510 -8.408833 -1.088746 0.115341 11.404686 1.149585 -3.965612 -5.481840 -11.744462 -0.612432 -55.094685 4.171067 -6.119144 -25.499077 -5.000000 35.852180 -23.115093 -9.055043 21.943613 0.577796 11.588428 -0.606338 59.659859 4.528728 4.260355 21.021696 5.000000 32.610832 22.856089 -16.466808 -0.769168 19.978481 19.726007 11.115956 2.622483 -7.114566 -0.660537 -4.787665 6.566123 -8.652585 21.613125 -5.936692 -11.992538 1.433322 1.976491 0.043574 -5.667243 -10.230836 8.701630 
1.018650 53.719448 -0.951863 -11.340686 -1.243249 5.958378 29.555407 1.155489 -0.036611 -1.482153 2.536884 -3.605511 -8.359985 -1.079090 0.113880 11.452641 1.159314 -3.975376 -5.481627 -11.724957 -0.611425 -55.104420 4.170026 -6.119854 -25.500454 -5.000000 35.868786 -23.058971 -8.978088 21.963989 0.577796 11.588428 -0.606338 59.667610 4.480357 4.197707 21.051298 5.000000 32.647846 22.868593 -16.486887 -0.749953 19.976028 19.714903 11.083411 2.621216 -7.114863 -0.621580 -4.746965 6.552822 -8.637994 21.636723 -5.927551 -11.999529 1.431875 1.965466 0.043606 -5.674418 -10.285308 8.666203 
1.020658 53.719955 -0.947423 -11.349228 -1.233558 5.948616 29.545115 1.149554 -0.050150 -1.482153 2.536884 -3.605511 -8.320905 -1.069435 0.112419 11.490828 1.169042 -3.985139 -5.493193 -11.704518 -0.619937 -55.104420 4.170026 -6.119854 -25.508997 -5.000000 35.865383 -23.003452 -8.917401 21.968374 0.577796 11.588428 -0.606338 59.675396 4.432003 4.135815 21.066990 5.000000 32.704762 22.866051 -16.499632 -0.745228 19.999386 19.678288 11.085515 2.624198 -7.113761 -0.621503 -4.742508 6.575693 -8.618310 21.641029 -5.946137 -11.994754 1.444638 1.968231 0.044192 -5.635200 -10.303874 8.649777 
1.023383 53.721222 -0.943780 -11.359369 -1.243337 5.919325 29.545616 1.145057 -0.040584 -1.472793 2.546641 -3.605510 -8.291588 -1.059779 0.110959 11.539058 1.169001 -4.014429 -5.512615 -11.694763 -0.619434 -55.114758 4.174557 -6.128562 -25.529684 -5.000000 35.850418 -22.942286 -8.871967 21.937347 0.577796 11.588428 -0.606338 59.683048 4.401896 4.085929 21.068731 5.000000 32.784336 22.810156 -16.483856 -0.741956 20.028399 19.677542 11.138927 2.622247 -7.104188 -0.650747 -4.734218 6.591238 -8.622786 21.643641 -5.966361 -11.960007 1.451096 1.975606 0.044622 -5.633624 -10.311041 8.669683 
1.026110 53.722481 -0.940139 -11.378478 -1.243381 5.899798 29.545975 1.127775 -0.026271 -1.463432 2.556398 -3.605508 -8.252489 -1.040468 0.108037 11.577522 1.168958 -4.043720 -5.520156 -11.676196 -0.608908 -55.115360 4.180129 -6.136559 -25.562521 -5.000000 35.823883 -22.886826 -8.814258 21.903276 0.568031 11.588428 -0.606338 59.681488 4.359164 4.031704 21.070381 5.000000 32.863888 22.764568 -16.476925 -0.748140 20.051432 19.683378 11.144940 2.622468 -7.114528 -0.650790 -4.713223 6.577793 -8.660852 21.659222 -5.976618 -11.912236 1.461139 1.992563 0.035313 -5.607708 -10.292639 8.667453 
1.026176 53.721214 -0.938881 -11.380054 -1.262853 5.880271 29.546156 1.133274 -0.013792 -1.474506 2.556344 -3.625010 -8.232923 -1.021156 0.105115 11.635427 1.178700 -4.043719 -5.541588 -11.665502 -0.617924 -55.133724 4.174912 -6.116399 -25.561144 -5.000000 35.807285 -22.883438 -8.808642 21.861446 0.568031 11.588428 -0.606338 59.709263 4.314398 3.979683 21.040447 5.000000 32.941814 22.818146 -16.472498 -0.770621 20.072849 19.704477 11.162343 2.622713 -7.124946 -0.670328 -4.726416 6.577779 -8.671459 21.679253 -5.947201 -11.924088 1.444261 1.968413 0.053948 -5.626481 -10.336534 8.636339 
1.026243 53.719955 -0.937623 -11.381839 -1.282304 5.870507 29.536604 1.130595 -0.004334 -1.485144 2.556307 -3.625427 -8.213355 -1.001845 0.102194 11.693333 1.188441 -4.043719 -5.551246 -11.655749 -0.617420 -55.142269 4.162735 -6.101111 -25.571905 -5.000000 35.779125 -22.869503 -8.810452 21.807737 0.558371 11.598181 -0.606843 59.726433 4.278783 3.921311 21.010483 5.000000 33.019753 22.879240 -16.471701 -0.787235 20.079762 19.711838 11.165885 2.622713 -7.124948 -0.670328 -4.738978 6.609644 -8.646129 21.658455 -5.947069 -11.914427 1.434415 1.987757 0.043534 -5.611287 -10.296239 8.644930 
1.026228 53.719448 -0.937876 -11.382617 -1.292041 5.860743 29.546053 1.130914 -0.005076 -1.495364 2.546513 -3.644939 -8.174275 -0.992189 0.100733 11.721941 1.198182 -4.043717 -5.551030 -11.636243 -0.616414 -55.161243 4.163107 -6.088945 -25.556988 -5.000000 35.757481 -22.845720 -8.799690 21.768669 0.587668 11.598181 -0.606843 59.755466 4.230572 3.882513 20.966120 5.000000 33.093918 22.895006 -16.481871 -0.817837 20.082521 19.723269 11.158294 2.622684 -7.124870 -0.650834 -4.722281 6.612704 -8.624323 21.658453 -5.947068 -11.914428 1.433227 1.976374 0.063104 -5.602510 -10.303729 8.642445 
1.026160 53.719448 -0.939139 -11.382396 -1.292064 5.850980 29.535904 1.147344 -0.019741 -1.495364 2.546513 -3.664470 -8.135197 -0.982533 0.099272 11.740302 1.217680 -4.033952 -5.560688 -11.626492 -0.615911 -55.189957 4.162453 -6.077490 -25.521370 -5.000000 35.754444 -22.804310 -8.776186 21.750189 0.617070 11.607932 -0.607348 59.775944 4.179508 3.856963 20.907394 5.000000 33.161549 22.895744 -16.484720 -0.860150 20.079762 19.711842 11.165885 2.622684 -7.124871 -0.650834 -4.735232 6.646266 -8.610039 21.662062 -5.936874 -11.922048 1.424035 1.958998 0.052909 -5.593392 -10.299068 8.645084 
1.026078 53.719448 -0.940653 -11.381955 -1.292109 5.831453 29.525631 1.142161 -0.032955 -1.504713 2.536756 -3.674236 -8.096118 -0.972878 0.097811 11.760248 1.217709 -4.014424 -5.570346 -11.616737 -0.615408 -55.219166 4.159351 -6.079617 -25.489321 -5.000000 35.739540 -22.763594 -8.768814 21.715574 0.656133 11.607933 -0.607348 59.805649 4.141130 3.834975 20.837507 5.000000 33.240425 22.896351 -16.478622 -0.898558 20.098635 19.721750 11.160779 2.621869 -7.145920 -0.631458 -4.756361 6.610841 -8.612891 21.668777 -5.947899 -11.924479 1.414743 1.965635 0.062108 -5.598722 -10.256398 8.662705 
1.025943 53.719448 -0.943173 -11.362750 -1.301892 5.802163 29.516018 1.127882 -0.027970 -1.515313 2.556270 -3.674235 -8.086336 -0.963222 0.096350 11.770221 1.217723 -4.004661 -5.589662 -11.597228 -0.614401 -55.278175 4.158692 -6.091877 -25.455822 -5.000000 35.711624 -22.737297 -8.772994 21.760218 0.646156 11.588428 -0.606338 59.861786 4.121278 3.791386 20.742611 5.000000 33.350548 22.899467 -16.459778 -0.941692 20.092390 19.713737 11.156922 2.611048 -7.139397 -0.610977 -4.786369 6.620434 -8.618653 21.631027 -5.936674 -11.912539 1.411100 1.944159 0.062156 -5.575891 -10.256853 8.686410 
